<mxfile host="app.diagrams.net" modified="2025-03-07T22:44:56.529Z" agent="Mozilla/5.0 (Windows NT 10.0; Win64; x64) AppleWebKit/537.36 (KHTML, like Gecko) Chrome/133.0.0.0 Safari/537.36" etag="NvXzX6TJfoU49IhlyS9a" version="24.0.0" type="device">
  <diagram name="Página-1" id="QH9GRB6sQxJk_K1BEbed">
    <mxGraphModel dx="1434" dy="746" grid="1" gridSize="10" guides="1" tooltips="1" connect="1" arrows="1" fold="1" page="1" pageScale="1" pageWidth="827" pageHeight="1169" math="0" shadow="0">
      <root>
        <mxCell id="0" />
        <mxCell id="1" parent="0" />
        <mxCell id="pXQdMqS-Q8eA3dv94ED3-1" value="" style="swimlane;startSize=0;" vertex="1" parent="1">
          <mxGeometry x="34" y="20" width="466" height="450" as="geometry">
            <mxRectangle x="34" y="20" width="50" height="40" as="alternateBounds" />
          </mxGeometry>
        </mxCell>
        <mxCell id="pXQdMqS-Q8eA3dv94ED3-5" value="" style="edgeStyle=orthogonalEdgeStyle;rounded=0;orthogonalLoop=1;jettySize=auto;html=1;exitX=0.25;exitY=0;exitDx=0;exitDy=0;endArrow=none;endFill=0;entryX=0.75;entryY=1;entryDx=0;entryDy=0;" edge="1" parent="pXQdMqS-Q8eA3dv94ED3-1" source="pXQdMqS-Q8eA3dv94ED3-3" target="pXQdMqS-Q8eA3dv94ED3-4">
          <mxGeometry relative="1" as="geometry" />
        </mxCell>
        <mxCell id="pXQdMqS-Q8eA3dv94ED3-8" value="" style="edgeStyle=orthogonalEdgeStyle;rounded=0;orthogonalLoop=1;jettySize=auto;html=1;exitX=0.75;exitY=0;exitDx=0;exitDy=0;endArrow=none;endFill=0;entryX=0.25;entryY=1;entryDx=0;entryDy=0;" edge="1" parent="pXQdMqS-Q8eA3dv94ED3-1" source="pXQdMqS-Q8eA3dv94ED3-3" target="pXQdMqS-Q8eA3dv94ED3-7">
          <mxGeometry relative="1" as="geometry" />
        </mxCell>
        <mxCell id="pXQdMqS-Q8eA3dv94ED3-11" value="" style="edgeStyle=orthogonalEdgeStyle;rounded=0;orthogonalLoop=1;jettySize=auto;html=1;entryX=0.5;entryY=0;entryDx=0;entryDy=0;endArrow=none;endFill=0;exitX=0.25;exitY=1;exitDx=0;exitDy=0;" edge="1" parent="pXQdMqS-Q8eA3dv94ED3-1" source="pXQdMqS-Q8eA3dv94ED3-3" target="pXQdMqS-Q8eA3dv94ED3-10">
          <mxGeometry relative="1" as="geometry" />
        </mxCell>
        <mxCell id="pXQdMqS-Q8eA3dv94ED3-13" value="" style="edgeStyle=orthogonalEdgeStyle;rounded=0;orthogonalLoop=1;jettySize=auto;html=1;exitX=1;exitY=0.5;exitDx=0;exitDy=0;endArrow=none;endFill=0;" edge="1" parent="pXQdMqS-Q8eA3dv94ED3-1" source="pXQdMqS-Q8eA3dv94ED3-3" target="pXQdMqS-Q8eA3dv94ED3-12">
          <mxGeometry relative="1" as="geometry" />
        </mxCell>
        <mxCell id="pXQdMqS-Q8eA3dv94ED3-3" value="Home Page" style="rounded=0;whiteSpace=wrap;html=1;" vertex="1" parent="pXQdMqS-Q8eA3dv94ED3-1">
          <mxGeometry x="100" y="120" width="120" height="60" as="geometry" />
        </mxCell>
        <mxCell id="pXQdMqS-Q8eA3dv94ED3-4" value="Register" style="rounded=0;whiteSpace=wrap;html=1;" vertex="1" parent="pXQdMqS-Q8eA3dv94ED3-1">
          <mxGeometry x="20" y="20" width="120" height="60" as="geometry" />
        </mxCell>
        <mxCell id="pXQdMqS-Q8eA3dv94ED3-7" value="Login" style="whiteSpace=wrap;html=1;rounded=0;" vertex="1" parent="pXQdMqS-Q8eA3dv94ED3-1">
          <mxGeometry x="190" y="20" width="120" height="60" as="geometry" />
        </mxCell>
        <mxCell id="pXQdMqS-Q8eA3dv94ED3-10" value="Cart" style="rounded=0;whiteSpace=wrap;html=1;" vertex="1" parent="pXQdMqS-Q8eA3dv94ED3-1">
          <mxGeometry x="20" y="240" width="120" height="60" as="geometry" />
        </mxCell>
        <mxCell id="pXQdMqS-Q8eA3dv94ED3-15" value="" style="edgeStyle=orthogonalEdgeStyle;rounded=0;orthogonalLoop=1;jettySize=auto;html=1;endArrow=none;endFill=0;" edge="1" parent="pXQdMqS-Q8eA3dv94ED3-1" source="pXQdMqS-Q8eA3dv94ED3-12" target="pXQdMqS-Q8eA3dv94ED3-14">
          <mxGeometry relative="1" as="geometry" />
        </mxCell>
        <mxCell id="pXQdMqS-Q8eA3dv94ED3-12" value="Store" style="rounded=0;whiteSpace=wrap;html=1;" vertex="1" parent="pXQdMqS-Q8eA3dv94ED3-1">
          <mxGeometry x="263" y="120" width="120" height="60" as="geometry" />
        </mxCell>
        <mxCell id="pXQdMqS-Q8eA3dv94ED3-14" value="Product" style="rounded=0;whiteSpace=wrap;html=1;" vertex="1" parent="pXQdMqS-Q8eA3dv94ED3-1">
          <mxGeometry x="263" y="205" width="120" height="60" as="geometry" />
        </mxCell>
        <mxCell id="pXQdMqS-Q8eA3dv94ED3-18" value="Profile" style="rounded=0;whiteSpace=wrap;html=1;" vertex="1" parent="pXQdMqS-Q8eA3dv94ED3-1">
          <mxGeometry x="46" y="370" width="120" height="60" as="geometry" />
        </mxCell>
        <mxCell id="pXQdMqS-Q8eA3dv94ED3-19" value="Shopping&lt;br&gt;History" style="rounded=0;whiteSpace=wrap;html=1;" vertex="1" parent="pXQdMqS-Q8eA3dv94ED3-1">
          <mxGeometry x="246" y="370" width="120" height="60" as="geometry" />
        </mxCell>
        <mxCell id="pXQdMqS-Q8eA3dv94ED3-20" value="Sección Públca" style="text;strokeColor=none;align=center;fillColor=none;html=1;verticalAlign=middle;whiteSpace=wrap;rounded=0;" vertex="1" parent="pXQdMqS-Q8eA3dv94ED3-1">
          <mxGeometry x="346" width="104" height="30" as="geometry" />
        </mxCell>
        <mxCell id="pXQdMqS-Q8eA3dv94ED3-21" value="Sección Privada" style="text;strokeColor=none;align=center;fillColor=none;html=1;verticalAlign=middle;whiteSpace=wrap;rounded=0;" vertex="1" parent="pXQdMqS-Q8eA3dv94ED3-1">
          <mxGeometry x="346" y="340" width="104" height="30" as="geometry" />
        </mxCell>
        <mxCell id="pXQdMqS-Q8eA3dv94ED3-2" value="" style="endArrow=none;html=1;rounded=0;exitX=0;exitY=0.75;exitDx=0;exitDy=0;entryX=1;entryY=0.75;entryDx=0;entryDy=0;" edge="1" parent="1" source="pXQdMqS-Q8eA3dv94ED3-1" target="pXQdMqS-Q8eA3dv94ED3-1">
          <mxGeometry width="50" height="50" relative="1" as="geometry">
            <mxPoint x="390" y="410" as="sourcePoint" />
            <mxPoint x="440" y="360" as="targetPoint" />
            <Array as="points" />
          </mxGeometry>
        </mxCell>
      </root>
    </mxGraphModel>
  </diagram>
</mxfile>
